<svg xmlns="http://www.w3.org/2000/svg" version="1.1" width="600px" height="600px" viewBox="0 0 200 200" style="overflow:hidden!important;"><g id="svga-group-wrapper"><g id="svga-group-backs-single"><path id="SvgjsPath12821" d="M0 0h200v200H0V0z" fill="#ecf0f1" stroke-width="none" opacity="1"></path></g><g id="svga-group-humanwrap-move" transform="matrix(1,0,0,1,0,0)"><g id="svga-group-humanwrap"><g id="svga-group-hair-back-move" transform="matrix(1,0,0,1,0,0)"><g id="svga-group-hair-back"><path id="SvgjsPath13041" d="M156.2 138.1c3.7 10.9 9.7 17.5 2.9 25.5-6.9 8-7.1 9.2-15.4 13.2s-79.6 3.7-86.1-3.7S48 157.6 46 139s-1.1-38.6 1.1-44.4c2.3-5.7 4.9-24 17.7-28.3s63-6.6 72.1-.9 18.9 8.6 20.3 21.5 0 16.3.9 29.5-1.9 21.7-1.9 21.7z" fill="#1b141c" stroke-width="none" opacity="1"></path><path id="SvgjsPath13042" d="M67.1 120.9c1.5 3.2 1.8 10.2-1.6 13.8-2.4 2.6-3.8 7.2 1.3 15.3 5.1 8.1 7.3 9 6.8 13.9s-5.4 16.1-.2 9.5c5.1-6.6 7.4-15.2 4-20.1s-4.9-9.3-4.7-15.6c.2-6.3.4-9.2.4-9.2l-6-7.6zm61.7 5.4c4.4 5.4 9.8 1.5 6.1 8.3-3.7 6.8-7.8 9.3-5.1 15.1 2.7 5.9 10.5 6.3 10.2 13.2-.2 6.8-7.3 16.4-7.3 16.4s6.3-12.4 2.7-16.1-14.9-9.5-10.6-20.6c2.1-5.3 7.2-10.9 5.9-12.6s-1.9-3.7-1.9-3.7z" fill="#2a232b" stroke-width="none" opacity="1"></path></g></g><g id="svga-group-humanbody-back"><path id="SvgjsPath12887" d="m168.5 219.5-1.7-21.5s.7-9-8.8-15.3-23.4-10.1-29.5-14.2c-6.1-4.1-9.2-4.5-9-16.9s.9-40.3.9-40.3H79.6s.7 27.9.9 40.3c.2 12.4-2.9 12.8-9 16.9-6.1 4.1-20 7.9-29.5 14.2S33.2 198 33.2 198l-1.6 21.5h136.9z" fill="#ebaa82" stroke-width="none" opacity="1"></path></g><g id="svga-group-chinshadow-single"><path id="SvgjsPath12883" d="M100 160.9s9.1.44 19.5-7.32c-.01-.63-.01-1.28 0-1.98.2-12.4.9-40.3.9-40.3H79.6s.7 27.9.9 40.3c.01.7.01 1.36 0 1.98 10.4 7.76 19.5 7.32 19.5 7.32z" fill="#cc7b48" stroke-width="none" opacity="0.65"></path></g><g id="svga-group-humanbody-front"><path id="SvgjsPath12888" d="M73.8 175.9c5.1 2.9 11.8 5.2 17.6 5.7.4 0 .4-.6.1-.7-2.8-1.1-5.9-1.7-8.8-2.6-2.9-.9-5.8-2-8.8-2.7-.1-.1-.3.2-.1.3zm35.2 6.2c5.3-.6 11.3-3 15.9-5.8.3-.2.1-.6-.2-.5-2.6.9-5.2 2-7.8 2.9-2.6.9-5.4 1.5-8 2.5-.5.1-.5.9.1.9z" fill="#cc7b48" stroke-width="none" opacity="1"></path><path id="SvgjsPath12889" d="m168.4 219.4-2.1-21.4c0-2.2-.5-4.5-1.5-6.6-.9-2.1-2.3-3.9-3.9-5.5s-3.5-2.8-5.5-4c-2-1.2-4.1-2.2-6.2-3.1-4.2-1.9-8.6-3.6-12.9-5.4-2.2-.9-4.3-1.9-6.4-3-1.1-.6-2.1-1.2-3-1.9-1-.6-2-1.2-3-1.9s-2-1.5-2.8-2.6c-.8-1-1.3-2.2-1.7-3.4-.7-2.4-.8-4.8-.8-7.2 0-4.7.2-9.4.3-14.1.2-9.4.6-18.7.9-28l.6.6-20.4-.2-20.4-.1.3-.3.7 28c.1 4.7.3 9.3.4 14 0 2.4-.1 4.7-.8 7.1-.3 1.2-.9 2.3-1.6 3.3-.8 1-1.7 1.8-2.7 2.5s-2 1.3-2.9 2c-.9.6-1.9 1.3-3 1.9-2.1 1.2-4.2 2.1-6.4 3.1-4.3 1.9-8.6 3.6-12.8 5.6-2.1 1-4.2 2.1-6.1 3.2-2 1.2-3.8 2.4-5.4 4-1.6 1.6-2.9 3.4-3.8 5.4-.4 1-.8 2.1-1 3.1-.2 1.1-.4 2.2-.3 3.2v.2l-1.5 21.5-1-1.1 34 .1c11.3 0 22.7.1 34.1.2l34.2.3 34.4.5zm.2.2-34 .4-34.2.3c-11.4.1-22.9.2-34.4.2l-34.4.1h-1.1l.1-1.1 1.7-21.5v.1c-.1-5.1 2.2-9.8 5.7-13.3 1.7-1.7 3.8-3.1 5.8-4.3 2-1.2 4.2-2.2 6.3-3.2 4.3-2 8.7-3.7 13-5.4 2.1-.9 4.3-1.8 6.3-2.9 1-.5 1.9-1.1 3-1.8 1-.6 2-1.2 2.9-1.9.9-.6 1.8-1.4 2.4-2.2.7-.9 1.2-1.9 1.5-2.9.6-2.1.8-4.5.8-6.8 0-4.6-.1-9.3-.2-14l-.6-28v-.3h.3l20.4-.1 20.4-.2h.6v.6c-.1 9.3-.2 18.7-.4 28-.1 4.7-.2 9.4-.2 14 .1 2.3.2 4.6.8 6.7.3 1.1.8 2 1.4 2.9.6.8 1.4 1.6 2.4 2.2.9.6 1.9 1.3 2.9 1.9 1 .7 1.9 1.3 2.9 1.8 2 1.1 4.1 2.1 6.3 3 4.3 1.8 8.6 3.6 12.9 5.6 2.1 1 4.2 2.1 6.2 3.3 2 1.2 4 2.6 5.7 4.3 3.4 3.4 5.6 8.1 5.4 13v-.1l1.4 21.6zm-112.8-.4 1.9-13.8.1 13.8h-2zm88.6 0-1.9-13.8-.1 13.8h2z" fill="#bd6630" stroke-width="none" opacity="1"></path></g><g id="svga-group-clothes-single"><path id="SvgjsPath13009" d="m122.4 220 2.7-26.8s-14.3 16-25 19.1c0 0-16.5-9.3-26.3-19.1l3.9 26.8h44.7z" fill="#efefef" stroke-width="none" opacity="1"></path><path id="SvgjsPath13010" d="M125.3 192.9c-.2-.2-.4-.1-.6 0a147.859 147.859 0 0 1-11.5 10.9c-2 1.7-4.1 3.3-6.3 4.8-2.2 1.4-4.5 2.7-6.9 3.5-2.3-1.3-4.6-2.7-6.9-4.2-2.3-1.5-4.5-3-6.7-4.6-4.4-3.2-8.6-6.6-12.4-10.4-.1-.1-.2-.1-.3-.1-.2 0-.3.2-.3.4.6 4.5 1.2 8.9 1.8 13.4.6 4.5 1.2 8.9 1.9 13.4 0 .2.3.4.5.4h11.3l11.2-.1 11.2-.1 11.1-.2 1.6-13.3 1.5-13.5c0-.1-.1-.2-.2-.3zm-1.9 13.5-1.1 13.5-11.3-.2-11.2-.1-11.2-.1H77.9c-.6-4.3-1.3-8.6-1.9-13-.6-4.1-1.2-8.2-1.9-12.3 3.7 3.5 7.8 6.6 11.9 9.5 2.2 1.6 4.5 3.1 6.8 4.5s4.6 2.9 7 4.3h.1c2.6-.8 4.9-2 7.2-3.4s4.4-3 6.5-4.6c2.1-1.7 4.1-3.4 6-5.3 1.6-1.5 3.2-3.2 4.7-4.8-.2 4-.5 8-.9 12z" fill="#3a0538" stroke-width="none" opacity="1" stroke="none"></path><path id="SvgjsPath13011" d="M75.7 167.9s1.2-3.7 1.7-6.4c.6-2.7.4-9.3.4-9.3s-1.9 4.1-4.6 6.4-13.2 9.1-13.2 9.1l2.3 1.6S37.7 178 36 179.2c-1.7 1.2-1.9 3.7-1.9 3.7l-2.1.6c-4.1 16.8-4.1 36.6-4.1 36.6h54.5s-2.3-16.6-3.3-23c-.9-6.5-3.4-29.2-3.4-29.2zm92.7 15.5-2.1-.6s-.2-2.5-1.9-3.7c-1.7-1.2-26.3-9.9-26.3-9.9l2.3-1.6s-10.4-6.8-13.2-9.1c-2.7-2.3-4.6-6.4-4.6-6.4s-.2 6.6.4 9.3 1.7 6.4 1.7 6.4-2.5 22.6-3.5 29c-1 6.4-3.3 23-3.3 23h54.5c0 .2 0-19.5-4-36.4z" fill="#591956" stroke-width="none" opacity="1" stroke="none"></path><path id="SvgjsPath13012" d="M140.3 179c-1.8-1.9-4.2-3.2-6.2-5-2-1.8-3.6-3.9-5.4-5.9-.2-.2-.6.1-.4.3 1.3 2.5 3.1 4.7 5.1 6.7 1.7 1.7 3.9 3.9 6.3 4.7-5.2 9.5-8.4 21.2-9.6 31.9 0 .2.3.3.4.1 1.2-5.5 2.2-11 3.9-16.4 1.6-5.4 4.1-10.4 6.1-15.7.1-.1 0-.2-.1-.3.1-.1 0-.2-.1-.4zm-2-11.9c-2.1-1.2-4.3-2.2-6.3-3.6-2.2-1.5-4.2-3.3-6.1-5.2-.2-.2-.4.1-.2.2 3.1 3.9 7.5 7.8 12.4 9.1.3.2.5-.3.2-.5zm18.9 10.5c-5.7-2.4-11.6-4.6-17.5-6.4-.2-.1-.3.2-.1.3 3.5 1.7 7.1 3.3 10.7 4.8 4.6 1.9 10.2 3.1 12.7 7.8.2.4.8.1.7-.3-.6-3.5-3.5-5-6.5-6.2zm9.5 8.4c-.1-.4-.7-.3-.7.1.7 5.4 1.9 10.6 2.5 16 .6 5.4.4 10.9 1.1 16.2 0 .4.5.4.6 0 1.2-9.9-.4-22.8-3.5-32.3zm-92.6-16.9c.5-1 .6-2.2.8-3.3.3-1.2.7-2.4 1-3.6.1-.2-.2-.3-.3-.1-.7 1-1.1 2.1-1.6 3.2-.4 1.1-.9 2.4-.8 3.6.1.4.7.7.9.2zm-.3 1.6c0-.1-.2-.1-.2 0-.1 6.5 1.2 13.2 2.2 19.7 1 7.1 2.1 14.3 4 21.3 0 .1.1 0 .1 0-.7-6.6-1.8-13.1-2.8-19.6-1.2-7-1.5-14.4-3.3-21.4zm-5.1 0c-2.8 3.1-5.4 5.9-8.8 8.3-.4.3-.3.9.1 1 1.4 4.4 3.4 8.5 4.8 12.9 1.4 4.5 2.3 9.2 3.5 13.7.1.3.5.2.5-.1-.5-8.7-3.2-19.2-7.9-26.7 3.3-2.3 6.5-5.2 8.4-8.7 0-.4-.4-.7-.6-.4zm-32.6 11.1c1.3 5.7 3.9 11.4 5.9 16.9.1.3.5.2.5-.1-1.1-5.6-2.6-12.2-5.6-17.1-.4-.4-.9-.1-.8.3z" fill="#682865" stroke-width="none" opacity="1" stroke="none"></path><path id="SvgjsPath13013" d="M80.7 200.4c-.3-2.2-.6-4.3-.9-6.5-1.1-8.6-2.2-17.3-3.4-25.9.4-1.2.7-2.5 1-3.7.1-.3.2-.6.2-.9.3-.4.9-1.1 1.3-2 .6-1.4 1.1-3.8 1.2-6.2s0-4.8 0-4.8-2.4 1.1-2.5 1.8c-.9 1.8-1.9 3.4-3.2 4.9-1.2 1.5-2.9 2.6-4.5 3.8-3 2.1-6 4.1-9.2 6-.3.2-.6.3-.9.5l-.1.1c-.2.2-.1.5.1.6.4.3.8.6 1.2.8l.2.2c-4.8 1.6-9.6 3.2-14.4 4.9-2.5.9-5.1 1.8-7.6 2.8l-1.9.8-1 .4c-.3.2-.7.3-1 .6-.7.5-1.2 1.2-1.5 1.9-.2.5-.4 1.1-.5 1.6l-1.6.4c-.3.1-.5.3-.6.6-1.4 6-2.2 12.2-2.8 18.3-.2 3.1-.5 6.1-.5 9.2 0 1.5-.1 3.1-.1 4.6v4.6l27 .6 13.8.2c4.6.1 9.2.1 13.8.1h.2c.6-.1 1-.6.9-1.2l-1.8-13-.9-6.1zM28 219.9c.1-.1 0-.3.1-.5v-.6l.1-1.1.1-2.3c.1-1.5.2-3.1.4-4.6.3-3.1.6-6.1 1-9.1s.9-6.1 1.4-9.1c.5-2.9 1.1-5.7 1.8-8.5l1.6-.4h.1c.5 1.2 1.1 2.4 1.5 3.7l.9 2.2.8 2.3c1 3 1.9 6.1 2.6 9.2.8 3.1 1.4 6.2 2 9.4.3 1.6.5 3.2.7 4.8.2 1.4.4 2.9.5 4.4l-15.6.2zm41-.8-13.5.2-12 .3c0-3.1-.2-6.2-.6-9.2-.4-3.2-1-6.4-1.7-9.5-.8-3.1-1.7-6.2-2.9-9.2-1-2.8-2.3-5.4-3.8-8 .2-.1.4-.4.4-.6.1-1.1.6-2.3 1.4-2.9.2-.2.4-.2.7-.4l.9-.4 1.9-.8 7.5-2.9 15-5.7c1.2.6 2.5 1.1 3.9 1.5-.5.4-1 .9-1.5 1.3-1.2 1-2.5 2-3.7 3-1.3.9-2.6 1.8-3.9 2.6-.4.2-.5.7-.4 1.1 1.3 3.3 2.6 6.6 3.8 9.9 1.2 3.3 2.3 6.7 3.5 10.1 1.1 3.4 2.1 6.8 3.1 10.2.9 3.1 1.6 6.3 2.4 9.5-.2-.1-.3-.1-.5-.1zm.6 0c-.3-3.3-.7-6.5-1.3-9.7-.7-3.5-1.5-7-2.5-10.5s-2.1-6.9-3.3-10.3c-1.2-3.1-2.4-6.2-3.8-9.3 1.2-.8 2.2-1.6 3.3-2.5 1.2-1 2.4-2.1 3.6-3.3 2.3-2.3 4.5-4.6 6.5-7.1-1.9 1.7-3.7 3.3-5.6 4.9-1.2-.9-2.4-1.6-3.7-2.3 0 0 0-.1-.1-.1l-1.1-.7c-.2-.1-.4-.3-.7-.4.1-.1.2-.1.3-.2 3-2 6-4.1 9-6.2 1.6-1.2 3.3-2.3 4.7-3.8 1-1.2 1.9-2.5 2.7-3.8 0 2.2-.1 4.4-.3 6.5-.2 1.3-.5 2.5-.9 3.8-.4 1.3-.8 2.5-1.2 3.8v.2c.8 8.7 1.8 17.4 2.8 26.1.2 2.2.5 4.4.8 6.5l.9 6.5 1.7 11.8c-4 0-7.9 0-11.8.1zm102.9-8.3c-.1-3.1-.3-6.1-.6-9.2-.5-6.1-1.4-12.3-2.8-18.3-.1-.3-.3-.5-.6-.6l-1.6-.4c-.1-.6-.2-1.1-.5-1.6-.3-.7-.8-1.4-1.5-1.9-.3-.3-.7-.4-1.1-.6l-1-.4-1.9-.8c-2.5-1-5.1-1.9-7.6-2.8-4.8-1.7-9.6-3.3-14.4-4.9l.2-.2c.4-.3.8-.5 1.2-.8.2-.1.3-.4.1-.6 0-.1-.1-.1-.1-.1-.3-.2-.6-.4-.9-.5-3.1-1.9-6.2-3.9-9.1-6-1.6-1.2-3.3-2.3-4.5-3.8-1.3-1.5-2.3-3.2-3.2-4.9 0-.1-.1-.1-.1-.1-.5-.6-2.4-1.1-2.4-1.1-.1 2.9-.1 7.4.5 9.7.4 1.7 1.8 3.6 2.4 4.5.3 1 .5 2 .8 2.9-1.2 8.6-2.3 17.2-3.4 25.9-.3 2.2-.6 4.3-.9 6.5l-1 6.5-1.8 13c-.1.6.3 1.1.9 1.2h.2c4.6 0 9.2 0 13.8-.1l13.8-.2 27-.6c.1-.3 0-.5.1-.6v-4c.1-2.1.1-3.6 0-5.1zm-53.4 8.1 1.7-11.8.9-6.5c.3-2.2.6-4.3.8-6.5 1-8.7 1.9-17.4 2.8-26.1v-.2c-.4-1.2-.8-2.5-1.2-3.8-.3-1.3-.7-2.5-.9-3.8-.2-2.1-.3-4.3-.3-6.5.8 1.4 1.7 2.6 2.7 3.8 1.3 1.6 3.1 2.7 4.7 3.8 3 2.1 6 4.1 9 6.2.1.1.2.1.3.2-.2.1-.4.3-.7.4l-1.1.7-.1.1c-1.3.7-2.5 1.4-3.7 2.3-1.9-1.6-3.8-3.2-5.6-4.9 2 2.5 4.2 4.9 6.5 7.1 1.1 1.1 2.3 2.2 3.6 3.3 1.1.9 2.1 1.7 3.3 2.5-1.4 3.1-2.6 6.1-3.8 9.3-1.2 3.4-2.4 6.8-3.3 10.3-1 3.4-1.8 7-2.5 10.5-.6 3.2-1.1 6.5-1.3 9.7-4 0-7.9 0-11.8-.1zm25.8.4-13.5-.2h-.5c.8-3.2 1.5-6.3 2.4-9.5.9-3.4 2-6.9 3.1-10.2 1.1-3.4 2.2-6.8 3.5-10.1 1.2-3.3 2.5-6.7 3.9-9.9.2-.4 0-.9-.4-1.1-1.3-.7-2.6-1.6-3.9-2.6-1.3-.9-2.5-1.9-3.7-3-.5-.4-1-.9-1.5-1.3 1.3-.4 2.6-1 3.9-1.5l15 5.7 7.5 2.9 1.9.8.9.4c.3.1.5.2.7.4.8.6 1.3 1.8 1.4 2.9 0 .3.2.5.4.6-1.4 2.6-2.7 5.2-3.8 8-1.2 3-2.1 6.1-2.9 9.2-.7 3.1-1.4 6.3-1.7 9.5-.4 3.1-.6 6.1-.6 9.2l-12.1-.2zm12 .3c.2-1.5.3-2.9.6-4.4.2-1.6.5-3.2.7-4.8.6-3.2 1.2-6.3 1.9-9.4.7-3.1 1.6-6.2 2.6-9.2l.8-2.3.9-2.2c.4-1.2 1-2.4 1.5-3.7h.1l1.6.4c.6 2.8 1.3 5.6 1.8 8.5.5 3 1 6 1.4 9.1.4 3 .7 6.1.9 9.1.1 1.5.3 3.1.4 4.6l.1 2.3.1 1.1v.6c0 .2 0 .4.1.5l-15.5-.2z" fill="#3a0538" stroke-width="none" opacity="1" stroke="none"></path></g><g id="svga-group-head" transform="matrix(1,0,0,1,0,0)"><g id="svga-group-ears-left-move" transform="matrix(1,0,0,1,0,0)"><g id="svga-group-ears-left"><path id="SvgjsPath12836" d="M64.2 96.3c-.2-.3-3.1-4-5.5-6.3-2.5-2.3-3.2-2.2-4.4-.8s-2.7 8.5-2.3 11.7 3.3 8.2 4.9 11c1.6 2.8 3.1 6.3 4.8 6 1.8-.3 4.2-4.3 5.3-7.3 1.2-3 .6-10.3-2.8-14.3z" fill="#ebaa82" stroke-width="none" opacity="1"></path><path id="SvgjsPath12837" d="M67.9 104.8c.1.8.2 1.6.2 2.4s0 1.6-.2 2.4l-.3 1.2c-.1.4-.3.7-.4 1-.3.7-.6 1.3-.9 2-.7 1.2-1.4 2.4-2.4 3.4-.5.5-1 1-1.7 1.2-.3.1-.8.1-1.2 0-.4-.2-.7-.4-1-.7-1.2-1.2-1.8-2.6-2.5-4s-1.4-2.7-2.1-4.1c-.7-1.4-1.4-2.8-2-4.2-.3-.7-.6-1.4-.9-2.2-.3-.7-.5-1.5-.6-2.3-.2-1.6 0-3.2.1-4.7.2-1.5.4-3 .8-4.5.2-.7.4-1.5.7-2.2.1-.2.2-.3.3-.5s.2-.4.3-.5c.2-.3.5-.5.8-.7s.7-.3 1.1-.3c.4.1.7.2 1.1.4.6.4 1.1.9 1.7 1.4 2 2.1 3.7 4.5 5.6 6.8 1.8 2.5 2.9 5.6 3.5 8.7zm-9.6-14.6c-1-.8-2.2-1.7-2.9-1.2-.2.1-.4.3-.6.6-.1.1-.2.2-.2.3-.1.1-.1.3-.2.4-.3.6-.5 1.2-.7 1.9-.4 1.3-.8 2.8-1.1 4.2-.3 1.4-.5 3-.4 4.4.1.7.3 1.5.5 2.2l.9 2.1c.6 1.4 1.4 2.7 2.2 4s1.6 2.6 2.3 3.9c.4.7.7 1.3 1.1 1.9.4.6.8 1.2 1.2 1.6s.8.6 1.2.4.9-.5 1.3-1c.8-.9 1.5-2 2.2-3.2l.9-1.8c.1-.3.3-.6.4-.9l.2-.4c0-.2.1-.3.1-.5.3-1.3.3-2.8.3-4.3-.1-1.5-.3-3-.8-4.5s-1.2-2.9-2.1-4c-1.7-2.2-3.7-4.4-5.8-6.1z" fill="#dc9164" stroke-width="none" opacity="1"></path><path id="SvgjsPath12838" d="M54.1 102.4c-.2-2.1-.4-7.4.8-9 2-2.7 5.6 6.1 6.5 8.8 0 .1.1.2.1.2.1.3-.1.7-.4.6-.4-.2-.8-.6-1.2-.8-1.1-.5-1.5.4-1.2 1.7.4 1.7 1.3 2.7 2.1 4 .1.2 0 .4-.2.3-1.5-.9-3.3-4.2-2.9-6.2.3-1.8 1.8-1.7 2.9-.8-.7-1.6-1.4-3.1-2.3-4.5-.6-.9-1.1-1.9-2-2-1.1-.2-.9.3-1.1 1.7-.8 4.6-.3 9.7 2.4 13.7.1.1 0 .2-.1.1-2-2.2-3.1-4.7-3.4-7.8z" fill="#cc7b48" stroke-width="none" opacity="1"></path></g></g><g id="svga-group-ears-right-move" transform="matrix(1,0,0,1,0,0)"><g id="svga-group-ears-right"><path id="SvgjsPath12839" d="M135.8 96.3c.2-.3 3.1-4 5.5-6.3 2.5-2.3 3.2-2.2 4.4-.8s2.7 8.5 2.3 11.7-3.3 8.2-4.9 11c-1.6 2.8-3.1 6.3-4.8 6-1.8-.3-4.2-4.3-5.3-7.3-1.2-3-.6-10.3 2.8-14.3z" fill="#ebaa82" stroke-width="none" opacity="1"></path><path id="SvgjsPath12840" d="M135.7 96.3c1.8-2.3 3.5-4.7 5.6-6.8.5-.5 1-1 1.7-1.4.3-.2.7-.4 1.1-.4.4-.1.8.1 1.1.3.3.2.6.5.8.7.1.1.2.3.3.5s.2.3.3.5c.3.7.5 1.4.7 2.2.4 1.5.6 3 .8 4.5.1 1.5.3 3.1.1 4.7-.1.8-.3 1.6-.6 2.3-.3.8-.6 1.5-.9 2.2-.6 1.4-1.3 2.8-2 4.2-.7 1.4-1.4 2.7-2.1 4.1-.7 1.4-1.4 2.8-2.5 4-.3.3-.6.6-1 .7s-.9.2-1.2 0c-.7-.2-1.2-.7-1.7-1.2-1-1-1.7-2.2-2.4-3.4-.3-.6-.6-1.3-.9-2-.1-.3-.3-.7-.4-1l-.3-1.2c-.1-.8-.2-1.6-.2-2.4s.1-1.6.2-2.4c.5-3.3 1.6-6.4 3.5-8.7zm.1.1c-.9 1.1-1.6 2.5-2.1 4s-.7 3-.8 4.5 0 3 .3 4.3c0 .2.1.3.1.5l.2.4c.1.3.3.6.4.9l.9 1.8c.6 1.2 1.4 2.3 2.2 3.2.4.4.9.8 1.3 1 .4.2.8 0 1.2-.4s.8-1 1.2-1.6.8-1.3 1.1-1.9c.7-1.3 1.6-2.6 2.3-3.9.8-1.3 1.5-2.6 2.2-4l.9-2.1c.3-.7.5-1.5.5-2.2.1-1.5-.1-3-.4-4.4-.3-1.4-.6-2.9-1.1-4.2-.2-.7-.5-1.3-.7-1.9-.1-.1-.1-.3-.2-.4-.1-.1-.1-.2-.2-.3l-.6-.6c-.7-.6-1.8.4-2.9 1.2-2 1.6-4 3.8-5.8 6.1z" fill="#dc9164" stroke-width="none" opacity="1"></path><path id="SvgjsPath12841" d="M145.9 102.4c.2-2.1.4-7.4-.8-9-2-2.7-5.6 6.1-6.5 8.8 0 .1-.1.2-.1.2-.1.3.1.7.4.6.4-.2.8-.6 1.2-.8 1.1-.5 1.5.4 1.2 1.7-.4 1.7-1.3 2.7-2.1 4-.1.2 0 .4.2.3 1.5-.9 3.3-4.2 2.9-6.2-.3-1.8-1.8-1.7-2.9-.8.7-1.6 1.4-3.1 2.3-4.5.6-.9 1.1-1.9 2-2 1.1-.2.9.3 1.1 1.7.8 4.6.3 9.7-2.4 13.7-.1.1 0 .2.1.1 2-2.2 3.1-4.7 3.4-7.8z" fill="#cc7b48" stroke-width="none" opacity="1"></path></g></g><g id="svga-group-faceshape-wrap"><g id="svga-group-faceshape-single"><path id="SvgjsPath12868" d="M141 85.4c-1.2-28.5-19.61-43.51-40.91-43.51S60.2 57 59 85.4c0 0-.4 25.9 5.4 37.3 14.4 28.4 35.62 26.95 35.62 26.95s21.18 1.45 35.58-26.95c5.8-11.4 5.4-37.3 5.4-37.3z" fill="#ebaa82" stroke-width="none" opacity="1"></path><path id="SvgjsPath12869" d="M135.6 122.7c5.8-11.4 5.49-37.32 5.49-37.32-1.2-28.5-19.79-44.08-41.09-44.08S60.2 57 59 85.4c0 0-.4 25.9 5.4 37.3 14.4 28.4 35.6 27.5 35.6 27.5s21.2.9 35.6-27.5zm-41.7 25.17c-2-.51-4-1.31-6-2.22-3.9-1.82-7.4-4.45-10.5-7.48-1.6-1.52-3-3.14-4.4-4.85 0 0-3.2-4.45-3.9-5.36-.3-.51-.6-.91-.9-1.42-.3-.51-.6-.91-.9-1.42l-1.8-3.24s-.9-2.12-1.1-2.63-.4-1.01-.5-1.62c-.2-.51-.3-1.11-.5-1.62-.6-2.12-1.1-4.35-1.5-6.57s-.8-4.45-1-6.78c-.6-4.55-.9-9.1-1.1-13.75v-3.34l.1-1.72c0-.61.1-1.11.1-1.72.1-1.11.3-2.22.4-3.44.1-.61.2-1.11.3-1.72 0 0 .3-1.31.4-1.62 1-4.45 2.5-8.8 4.8-12.64.5-1.01 1.2-1.92 1.8-2.83l1-1.31c.3-.4.7-.91 1.1-1.31 1.4-1.72 3-3.34 4.7-4.75 3.4-2.83 7.3-4.96 11.4-6.47 4.1-1.42 8.4-2.12 12.8-2.22 2.2-.1 11 1.11 11.3 1.21 4.91 1.22 9.7 3.54 13.3 5.97.9.61 1.8 1.31 2.6 2.02l1.3 1.11 1.2 1.11c1.6 1.62 3 3.34 4.3 5.16.3.51 1.9 2.83 1.9 2.83.3.51 1.6 3.03 1.6 3.03.5 1.01.9 2.12 1.4 3.14.4 1.11.8 2.12 1.1 3.24.4 1.11.6 2.22.9 3.34.1.61.7 3.34.7 3.34l.28 1.94c.1.61.18 2.74.18 2.74l.06.93s-.01 8.78-.31 12.32-.51 6.76-1.11 10.3c-.3 1.72-.7 3.54-1.1 5.26-.4 1.72-.9 3.44-1.5 5.06s-1.2 3.24-2 4.75l-1.3 2.22c-.4.81-.9 1.52-1.4 2.22-1.9 2.93-4 5.66-6.3 8.19s-4.8 4.85-7.5 6.88c-1.4 1.01-2.8 1.92-4.2 2.73-1.5.81-3 1.52-4.5 2.12-.4.2-2 .71-2.4.81-.8.2-1.6.4-2.4.61s-6.63.63-10.9-.53z" fill="#bd6630" stroke-width="none" opacity="1"></path></g></g><g id="svga-group-mouth-single-move" transform="matrix(1,0,0,1,0,0)"><g id="svga-group-mouth-single"><path id="SvgjsPath12826" d="M95.2 133.6c3.7 1.9 5.4 1.5 7.2 1.3s6.2-2.5 9-5.2c2.7-2.7 3.2-4.2 3.2-4.2-2.5-.5-9.6-2.6-10.7-2.4-.8.1-2.9 1.9-3.6 1.9s-3.1-1.5-3.9-1.6c-.9-.1-2.3.4-4.4 1.1s-6 1.1-6 1.1 5.5 6.1 9.2 8z" fill="#904539" stroke-width="none" opacity="1" transform="translate(0 3)"></path><path id="SvgjsPath12827" d="M85.5 125.7c4.9 1.2 10.2 2.1 15.2 2.3 1.8.1 3.7-.3 5.5-.6 3-.5 6.3-.8 9.2-1.8.3-.1.3-.7-.1-.6-4.8.6-9.7 2.4-14.6 2.2-5.1-.2-10.1-1.4-15.2-1.9-.2.1-.2.4 0 .4z" fill="#813326" stroke-width="none" opacity="1" transform="translate(0 3)"></path></g></g><g id="svga-group-eyes-left-move" transform="matrix(1,0,0,1,0,0)"><g id="svga-group-eyes-left"><g id="svga-group-eyesback-left"><path id="SvgjsPath12942" d="M92.2 101.8s-.6-1.9-2-3.8-3.3-3.9-6.6-4.5c-3.3-.6-12.1 2.2-12.1 2.2s1.4 1.9 3.1 3.1 6.3 2.9 8.2 2.8c1.9-.1 4.2-.5 5.2-.5 1.2 0 3.2 0 4.2.7z" fill="#ffffff" stroke-width="none" opacity="1"></path></g><g id="svga-group-eyesiriswrapper-left" transform="matrix(1,0,0,1,0,0)"><g id="svga-group-eyesiriscontrol-left" transform="matrix(1,0,0,1,0,0)"><g id="svga-group-eyesiris-left"><path id="SvgjsPath12904" d="M82 91.5c2.7 0 4.9 2.2 4.9 4.9s-2.2 4.9-4.9 4.9-4.9-2.2-4.9-4.9 2.2-4.9 4.9-4.9z" fill="#681711" stroke-width="none" opacity="1"></path><path id="SvgjsPath12905" d="M82 93.8c1.4 0 2.6 1.2 2.6 2.6S83.4 99 82 99s-2.6-1.2-2.6-2.6 1.2-2.6 2.6-2.6z" fill="#000000" stroke-width="none" opacity="1"></path><path id="SvgjsPath12906" d="m81.3 94.3-.5-.5c-.2-.2-.4-.3-.7-.3s-.5.1-.7.3c-.2.2-.3.4-.3.7s.1.5.3.7l.5.5c.2.2.4.3.7.3.2 0 .5-.1.7-.3.4-.5.4-1 0-1.4zm2.5 4.4c.8 0 .8-1.3 0-1.3s-.9 1.3 0 1.3z" fill="#ffffff" stroke-width="none" opacity="1"></path></g></g></g><g id="svga-group-eyesfront-left"><path id="SvgjsPath12950" d="M70.7 98c0 6.9 4.9 12.5 11 12.5s11-5.6 11-12.5-4.9-12.5-11-12.5-11 5.6-11 12.5zm.9-2.3s8.8-2.9 12.1-2.2c3.3.6 5.3 2.6 6.6 4.5 1.4 1.9 2 3.8 2 3.8-1-.7-3.1-.7-4.1-.7-1.1 0-3.3.5-5.2.5-1.9.1-6.4-1.7-8.2-2.8-1.9-1.2-3.2-3.1-3.2-3.1z" fill="#ebaa82" stroke-width="none" opacity="1"></path><path id="SvgjsPath12951" d="M71.4 96c.2.3.4.6.7.9-.8-.2-1.8 0-2.4.5-.1.1 0 .2.1.2.5-.2 1.1-.3 1.7-.3.5 0 .9.2 1.3.4.1.1.2.2.4.3-.6.1-1.1.4-1.4.8-.1.1 0 .3.1.2.5-.3 1.1-.5 1.6-.7 1.7 1.4 3.7 2.4 5.6 3 1.7.5 3.4.8 5.2.6 2.7-.3 5.1-1.4 7.8 0 .1.1.2-.1.1-.2.1 0 .1-.1.1-.2-1.2-4.4-4.7-8.2-9.4-9.1-1.9-.3-3.7 0-5.5.5-1.2-.3-2.1-.9-3.1-1.8-.1-.1-.3 0-.2.2.5.9 1.5 1.6 2.5 1.9-.3.1-.6.2-.8.3-1.8.1-3.2-.6-4.6-1.7-.1-.1-.3.1-.2.2.9 1.1 2.3 1.7 3.7 1.9-.5.2-.9.3-1.4.4-1.9 0-3.5-.6-5.2-1.7-.1-.1-.2.1-.1.2 1 1.1 2.5 1.8 4 1.9-2.3.5-4.4.3-6.8-1.2-.1-.1-.3.1-.2.2 2.2 1.9 4.3 2.4 6.4 2.3zm.5 0c1.3-.1 2.7-.5 4.2-1 3.2-1 7-1.9 10.1-.2 2.8 1.5 4.4 4.1 5.8 6.8-2.9-1.5-5.7-.3-8.8-.5-4.5-.2-8-2.4-11.3-5.1z" fill="#000000" stroke-width="none" opacity="1"></path></g></g></g><g id="svga-group-eyes-right-move" transform="matrix(1,0,0,1,0,0)"><g id="svga-group-eyes-right"><g id="svga-group-eyesback-right"><path id="SvgjsPath12943" d="M107.8 101.8s.6-1.9 2-3.8 3.3-3.9 6.6-4.5c3.3-.6 12.1 2.2 12.1 2.2s-1.4 1.9-3.1 3.1-6.3 2.9-8.2 2.8c-1.9-.1-4.2-.5-5.2-.5-1.2 0-3.2 0-4.2.7z" fill="#ffffff" stroke-width="none" opacity="1"></path></g><g id="svga-group-eyesiriswrapper-right" transform="matrix(1,0,0,1,0,0)"><g id="svga-group-eyesiriscontrol-right" transform="matrix(1,0,0,1,0,0)"><g id="svga-group-eyesiris-right"><path id="SvgjsPath12907" d="M118 91.5c2.7 0 4.9 2.2 4.9 4.9s-2.2 4.9-4.9 4.9-4.9-2.2-4.9-4.9 2.2-4.9 4.9-4.9z" fill="#681711" stroke-width="none" opacity="1"></path><path id="SvgjsPath12908" d="M118 93.8c1.4 0 2.6 1.2 2.6 2.6S119.4 99 118 99s-2.6-1.2-2.6-2.6 1.2-2.6 2.6-2.6z" fill="#000000" stroke-width="none" opacity="1"></path><path id="SvgjsPath12909" d="m117.4 94.3-.5-.5c-.2-.2-.4-.3-.7-.3s-.5.1-.7.3c-.2.2-.3.4-.3.7s.1.5.3.7l.5.5c.2.2.4.3.7.3.2 0 .5-.1.7-.3.3-.5.4-1 0-1.4zm2.4 4.4c.8 0 .8-1.3 0-1.3s-.8 1.3 0 1.3z" fill="#ffffff" stroke-width="none" opacity="1"></path></g></g></g><g id="svga-group-eyesfront-right"><path id="SvgjsPath12952" d="M118.3 85.5c-6.1 0-11 5.6-11 12.5s4.9 12.5 11 12.5 11-5.6 11-12.5-5-12.5-11-12.5zm7 13.3c-1.7 1.2-6.3 2.9-8.2 2.8-1.9-.1-4.2-.5-5.2-.5-1.1 0-3.1 0-4.1.7 0 0 .6-1.9 2-3.8s3.3-3.9 6.6-4.5c3.3-.6 12.1 2.2 12.1 2.2s-1.4 1.9-3.2 3.1z" fill="#ebaa82" stroke-width="none" opacity="1"></path><path id="SvgjsPath12955" d="M134.8 93.7c.1-.1 0-.3-.2-.2-2.4 1.5-4.5 1.7-6.8 1.2 1.5-.1 2.9-.8 4-1.9.1-.1 0-.3-.1-.2-1.6 1.2-3.3 1.8-5.2 1.7-.4-.1-.9-.3-1.4-.4 1.4-.1 2.9-.7 3.7-1.9.1-.1-.1-.3-.2-.2-1.5 1.1-2.8 1.8-4.6 1.7-.3-.1-.6-.2-.8-.3 1-.3 2-1 2.5-1.9.1-.1-.1-.3-.2-.2-1 .9-1.9 1.5-3.1 1.8-1.8-.5-3.6-.8-5.5-.5-4.6.9-8.1 4.6-9.4 9.1 0 .1 0 .2.1.2-.1.1 0 .2.1.2 2.7-1.4 5.1-.3 7.8 0 1.8.2 3.5-.1 5.2-.6 1.9-.6 3.9-1.7 5.6-3 .6.2 1.1.4 1.6.7.1.1.2-.1.1-.2-.4-.4-.9-.7-1.4-.8.1-.1.2-.2.4-.3.4-.2.8-.4 1.3-.4.6 0 1.1.1 1.7.3.1 0 .2-.1.1-.2-.6-.5-1.5-.7-2.4-.5.2-.3.5-.6.7-.9 2.3.1 4.4-.4 6.4-2.3zm-18 7.5c-3.1.2-5.9-1-8.8.5 1.3-2.7 3-5.3 5.8-6.8 3.2-1.7 6.9-.8 10.1.2 1.5.5 2.9.8 4.2 1-3.3 2.6-6.8 4.8-11.3 5.1z" fill="#000000" stroke-width="none" opacity="1"></path></g></g></g><g id="svga-group-facehighlight-single"></g><g id="svga-group-eyebrows-left-move" transform="matrix(1,0,0,1,0,0)"><g id="svga-group-eyebrows-left-rotate" transform="matrix(1,1.7453292519943295e-9,-1.7453292519943295e-9,1,1.4966197170451778e-7,-1.397919930923308e-7)"><g id="svga-group-eyebrows-left"><path id="SvgjsPath12991" d="M72.9 84.2c.1-.2.4-.3.6-.4.2-.1.4-.2.6-.2.4-.2.8-.4 1.2-.5.5-.1 1.2-.5 1.7-.2 1.6-.6 3.7-.2 5.1.6 1.9.2 3.9.8 5.3 1.8.1.1.2.2.2.3.3.1.5.2.8.3 1 .4 2.1.7 3.1 1.2.1 0 .2.1.3.1.3.1.4.7.2.8-.1.1-.1.2-.2.3-.8.6-1.8.2-2.6-.1-.7-.3-1.5-.6-2-1.2-.8-.3-1.4-.7-2.1-1.1-.1 0-.2-.1-.3-.1-1.2-.2-2.5-.7-3.7-1.3-.7-.1-1.3-.3-2-.3-.9-.1-1.8.2-2.8-.1h-.1c-.2.1-.4.1-.6.2-.8.2-1.5.4-2.3.4-.1 0-.2-.1-.2-.2H73s-.2-.1-.1-.3z" fill="#2a232b" stroke-width="none" opacity="1"></path><path id="SvgjsPath12992" d="M77.4 82.3c3.1-.2 6.2 1.5 9 2.6 1.7.7 5.2.9 5.9 3 .1.3-.3.4-.5.2-.9-1.2-2.4-1.4-3.8-1.8-1.2-.4-2.3-.8-3.5-1.3-2.4-1-4.8-1.6-7.3-2.2-.1-.1 0-.4.2-.5z" fill="#3a353a" stroke-width="none" opacity="1"></path><path id="SvgjsPath12993" d="M93.3 87.9c.3-1.4-1.8-1.9-2.8-2.3-2.4-1-4.9-2.1-7.4-2.8-1.5-.4-3.1-.7-4.6-.7-1.2 0-2.3.1-3.5.5-2 .6-3.9 1.8-5.6 3.1-.9.5-1.8 1.2-2.5 1.9-.1.1 0 .3.2.2 0 0 .1 0 .1-.1 0 .1.1.1.2.1 1.5-.7 2.8-1.6 4.3-2.2 1.5-.6 3.1-1 4.7-1.1h.7c1.9 0 3.7.4 5.4 1.2 2.4 1.1 4.6 2.6 7 3.5.4.2.9.2 1.4.2 1.1 0 2.2-.4 2.4-1.5zM78.5 83c1.6 0 3.2.4 4.8.9 2 .7 4 1.6 6 2.4.4.2 2.4.7 2.6 1.2.2.6-.2.8-.8.9-.3 0-.6-.1-.8-.1-.6-.2-1.2-.6-1.7-.9-3.1-1.6-6.3-3.5-9.8-3.7h-1c-1.1 0-2.3.1-3.5.3.5-.2 1-.4 1.6-.6.8-.3 1.7-.4 2.6-.4z" fill="#1b141c" stroke-width="none" opacity="1"></path></g></g></g><g id="svga-group-eyebrows-right-move" transform="matrix(1,0,0,1,0,0)"><g id="svga-group-eyebrows-right-rotate" transform="matrix(1,1.7453292519943295e-9,-1.7453292519943295e-9,1,1.4950030902127764e-7,-2.0892582597298315e-7)"><g id="svga-group-eyebrows-right"><path id="SvgjsPath12994" d="M127.1 84.2c-.1-.2-.4-.3-.6-.4-.2-.1-.4-.2-.6-.2-.4-.2-.8-.4-1.2-.5-.5-.1-1.2-.5-1.7-.2-1.6-.6-3.7-.2-5.1.6-1.9.2-3.9.8-5.3 1.8-.1.1-.2.2-.2.3-.3.1-.5.2-.8.3-1 .4-2.1.7-3.1 1.2-.1 0-.2.1-.3.1-.3.1-.4.7-.2.8.1.1.1.2.2.3.8.6 1.8.2 2.6-.1.7-.3 1.5-.6 2-1.2.8-.3 1.4-.7 2.1-1.1.1 0 .2-.1.3-.1 1.2-.2 2.5-.7 3.7-1.3.7-.1 1.3-.3 2-.3.9-.1 1.8.2 2.8-.1h.1c.2.1.4.1.6.2.8.2 1.5.4 2.3.4.1 0 .2-.1.2-.2h.1s.2-.1.1-.3z" fill="#2a232b" stroke-width="none" opacity="1"></path><path id="SvgjsPath12995" d="M122.6 82.3c-3.1-.2-6.2 1.5-9 2.6-1.7.7-5.2.9-5.9 3-.1.3.3.4.5.2.9-1.2 2.4-1.4 3.8-1.8 1.2-.4 2.3-.8 3.5-1.3 2.4-1 4.8-1.6 7.3-2.2.1-.1 0-.4-.2-.5z" fill="#3a353a" stroke-width="none" opacity="1"></path><path id="SvgjsPath12996" d="M109 89.3c.5 0 1-.1 1.4-.2 2.4-.9 4.7-2.4 7-3.5 1.8-.8 3.6-1.2 5.4-1.2h.7c1.6.1 3.2.5 4.6 1.1 1.5.6 2.9 1.6 4.3 2.2.1 0 .2 0 .2-.1 0 0 .1 0 .1.1.2.1.3-.1.2-.2-.7-.7-1.6-1.4-2.5-1.9-1.7-1.3-3.6-2.4-5.6-3.1-1.1-.4-2.3-.5-3.5-.5-1.6 0-3.1.3-4.6.7-2.5.7-5 1.8-7.4 2.8-.9.4-3.1.9-2.8 2.3.4 1.2 1.5 1.6 2.5 1.5zm15.2-5.9c.5.2 1.1.3 1.6.6-1.2-.2-2.3-.3-3.5-.3h-1c-3.5.2-6.8 2.2-9.8 3.7-.6.3-1.1.7-1.7.9-.2.1-.5.1-.8.1-.5 0-1-.2-.8-.9.2-.5 2.2-1 2.6-1.2 2-.8 4-1.7 6-2.4 1.6-.5 3.2-.9 4.8-.9.8 0 1.7.1 2.6.4z" fill="#1b141c" stroke-width="none" opacity="1"></path></g></g></g><g id="svga-group-nose-single-move" transform="matrix(1,0,0,1,0,0)"><g id="svga-group-nose-single"><path id="SvgjsPath12982" d="M104.93 107.57c-.14-.18-.45.05-.32.25.84 1.29 1.76 2.56 2.54 3.89.53.9 1.07 2.03.7 3.12-.61 1.79-2.18 1.68-3.45 1 .48-.61.75-1.33.69-2.12-.02-.19-.29-.37-.44-.18-1.26 1.59-2.06 3.25-4.41 3.34-2.48.1-4.08-1.91-4.73-4.07-.06-.19-.32-.14-.33.04-.07.99.25 1.95.79 2.76-.36.07-.73.14-1.09.16-1.15.07-1.34-.02-2.11-.98-.8-1.01-.81-1.27-.36-2.39.21-.53.52-.98.82-1.45.97-1.52 1.84-3.06 2.48-4.75 1.29-3.37 1.85-7.09 1.22-10.66-.03-.15-.26-.11-.27.04-.01 2.89-.19 5.74-1.04 8.52-.88 2.88-2.54 5.04-3.92 7.64-.72 1.35-1.02 3.12.21 4.28 1.22 1.15 3.1.78 4.52.24.85.92 2.02 1.56 3.26 1.67 1.4.12 3.23-.55 4.36-1.7 1.31 1.45 3.82.78 4.47-1.08 1.01-2.82-2.06-5.64-3.59-7.57z" fill="#bd6630" stroke-width="none" opacity="1" transform="translate(0 2)"></path><path id="SvgjsPath12983" d="M102 110.13c-.8-.75-2.07-.97-2.97-.27-.33.25-.52.57-.61.9-.16.05-.3.14-.44.27-.68.67-.39 1.71.19 2.34.5.53 1.31.78 2.02.75.88-.05 1.67-.46 2.16-1.2.57-.86.4-2.09-.35-2.79z" fill="#f3b792" stroke-width="none" opacity="1" transform="translate(0 2)"></path></g></g><g id="svga-group-hair-front"><path id="SvgjsPath13037" d="M160 89.7c-4.1-18.8-35.3-51.9-48.6-51.9-10.9 0-26.6 2.6-28.9 13.2-1.4-.3-3.6-.4-6.3 1.3-4.9 2.9-15.5 12.8-15.4 22.5.1 9.7 9.1 12.4 9.1 12.4-1.2-10.7-1.6-14.3 1.4-20.3s11.8-7.8 11.8-7.8c.3 1.1 8-9.7 18.2-10.5 10.5-.8 13.7 5.3 12.5 13s1.2 12.1 6.2 14.5c5 2.3 7.7-1.8 11.8 1.8 4.1 3.5 7.9 10.3 4.4 23.2-3.5 12.9-4.4 21.5 1.5 24.1s26.4-16.6 22.3-35.5z" fill="#1b141c" stroke-width="none" opacity="1"></path><path id="SvgjsPath13038" d="M180.6 133.3c-3.8-2.6-6.1-2.9-3.5-13 .2-1 .4-1.8.5-2.7 1.5-1.8 2.7-3.7 2.6-5.8-.2-5.3-13.1-7.7-14.3-10.8-1.2-3.1-3.1-6.7 1.9-18.6s1.9-23.2-11.5-25.6-6.9-6.7-10.5-13.9c-3.6-7.2-15.8-16.5-27.2-13.9-11.5 2.6-10-6.7-23.9-4.8s-8.6 6.9-14.6 9.8-7.9 2.2-9.6 5.3c-1.7 3.1-1.7 5.5-.5 8.4 0 0-4.5-5-14.3-1.9S30.6 58.1 37.3 69.3s5.5 11.5-5.7 20.8-6 16.7 2.6 23.2 6.9 9.8-1.7 15.3-11.7 18.6 1 26.3 13.1 12.9 12 18.9c-1.2 6 2.4 16.5 23.4 16.5 0 0-9.3-3.6-5.7-11.7s7.4-10.5 0-19.6-10.8-16.2-6.5-23.2 13.6-7.6 6.2-16.5-8.6-12.7-.7-18.9c7.9-6.2 11.5-8.8 5.7-18.6C62.2 72 70.5 58.3 83 59.3c0 0 2.2-7.4 11.5-12.2s24.6-4.1 24.4 4.8c-.2 8.8-6 16.5-.7 24.4 5.3 7.9 13.1 2.2 22.5 1.9 9.3-.2 14.8 11 3.6 23.9s-11.7 18.2-8.4 23.7 11.7.5 14.8 5.3c3.1 4.8-11.9 6.9-12.9 13.1s.7 8.8 7.2 11c6.4 2.1 8.4 11 .5 13.9-7.7 2.8-6.9 13.7-1 18.8l.3.3s-1.8-4.1.3-7.3c2-3.2 12.7-1.7 22.2-1.4 9.5.3 7.8-5.8 4.3-17s4.6-12.7 7.2-15.6c2.4-3 5.6-11 1.8-13.6z" fill="#2a232b" stroke-width="none" opacity="1"></path><path id="SvgjsPath13039" d="M73.9 53.6s-15.1-4.2-20.8 8.3 4.9 17 6.4 23.8C61 92.5 44.8 96.2 41 102.3c-3.8 6-2.3 12.8 9.4 19.3s-3 12.8-6 16.6 3 7.9 6.8 13.2c3.8 5.3 3 12.1 1.1 16.2s-1.9 7.2 1.5 9.8c0 0-3.4-2.6 1.5-10.9s-6.4-19.6-7.5-24.5c-1.1-4.9 9.8-10.9 11-14.7s-8.3-5.7-14.4-11.7c-6-6-3-12.8.8-14.7S63 93 64.1 89.6c1.1-3.4-9.8-12.1-9.8-18.5s.3-17.9 19.6-17.5zm3-3.1s1.9-7.5 9.4-11.7c7.6-4.2 29.8-6 37 0 7.2 6-3.4 19.6-.8 27.9s12.8 3.8 21.5 3c8.7-.8 17.4 3.8 15.5 14.7s-23 24.2-18.1 32.5c4.9 8.3 20.8-1.5 21.9 6.4 1.1 7.9-21.8 12.7-16.8 23.7s15.7 3.9 13.4 12.2-6 9.1-10.2 11.7c-4.1 2.6-3.8 5.7-3.8 5.7s.8-4.9 8.7-6.4 12.1-11.3 9.8-17.8-.5-11.1 3.6-19 8-15.5 3.5-17.7-16.9-.6-16.5-7.4c.4-6.8 7.9-21.5 8.3-29.1.4-7.6-.4-9.1-10.9-12.8-10.6-3.8-15.5-3-15.1-14 .4-11-7.9-17-14.3-18.9s-20.8-1.9-33.6 1.5c-12.9 3.5-12.5 15.5-12.5 15.5zm-7.7-.4s-10.4-.3-17 3.6-7.3 15.4.2 24.8-6.2 13-11 15.2-9.9 10.5-6.5 14.9c3.4 4.4 11.2 11.5 14.1 14.6 2.9 3.1-2.4 7.8-7.6 11.5s-6.7 7.8-3.9 11.2c2.8 3.4 11.5 7.6 12.6 12.6s-.3 8.6-.3 8.6 1-8.3-2.9-11c-3.9-2.8-15.6-4.5-16.5-13.6s11.4-11 13.4-15.1-2.3-10.4-4.7-12.2c-2.4-1.8-10.2-7.9-10.5-13.3-.3-5.3 4-10.5 9.7-13.1C44 86.2 48.2 85.7 49 82c.8-3.7-6.5-9.4-7.5-14.1-1-4.7-.8-11.5 6.3-15.4s12.7-3.7 21.4-2.4z" fill="#1b141c" stroke-width="none" opacity="1"></path><path id="SvgjsPath13040" d="M81.6 54.5s3.5-11.1 12.7-15.2 23.1-3.8 27.6 1 .4 13-1.5 17.6-4.7 11.8-1.1 15.2c3.6 3.5 10.4 2.6 14.9.8s16.7-4.1 21.4 2-.9 16.6-6.2 22.5c-5.3 5.9-10.7 11.8-10.1 16.9.6 5.1 5.7 6.5 15.5 6.9 9.8.4 3.6 6.9-7.4 15.8s2 16 2 16-7.1-1.7-7.7-7.2 3-8.6 7.1-11.4 10.7-8.6 9.3-10.4c-1.4-1.8-14.8 2.3-18.7-.4s-4.5-5.9-2.1-12.8 11.9-13.9 14.2-18.4 6.3-12.8 2.7-16.4-16.7-1.1-24.4 1.2-13.1-2.7-13.1-6.6-.9-3.9 3.6-15.8-1.7-15.7-5.9-16.6-21.7-3.5-32.8 15.3zm-5 3.9s-11.3 2.1-13 9.3 2.7 15.5 4.5 19.6c1.8 4.1-6 8.9-10.5 13s-6.9 7.8-3.9 12.5 10.2 10.1 9.5 13c-.8 2.9-3.8 4.5-3.8 4.5s4.4-4.8.6-7.7c-3.8-2.9-13.9-6.6-13.3-13.9.6-7.2 7.1-8.6 11.9-12.1s8.1-3.6 8.1-8.3-6-9-8-15.8c-1.8-6.7.7-11.8 17.9-14.1zm55.6-22.7s5.6 1 8 8.8.2 10.7 3.4 14.1 14.2 3 18 6.3c3.7 3.2 5.3 12.9 1.7 23.6 0 0 5.6-8.8 4.6-16.8s-6.3-8.5-17.6-12.4-5.3-10.2-8.5-16.8-9.6-6.8-9.6-6.8zm41 82.2c-1.9-3.3-6.1-3.6-9.5-3.6-4.7 0-9.5.4-11.3-5.3-1.5-4.7 1.4-9.2 3.3-13.3 3.5-7.4 9.7-19.5.3-25-4-2.3-8.6-2.3-13-1.7-3.7.6-7.8 2.1-11.6 1.7-7.6-.7-6.7-7.9-4.9-13.1.1-.2-.2-.3-.3-.1-1.5 3.4-3.1 7.7-.8 11.2 2.3 3.4 6.9 3.1 10.4 2.6 7-.9 16.4-3.9 22 2.4 5.9 6.7-1.9 19.2-4.8 25.7-1.6 3.7-3 8-.9 11.8 2 3.8 6.3 4 10.1 4.2 5 .1 11.9 1.2 9.9 8.6-.9 3.3-3.1 6.4-5 9.1-3.3 4.9-6.8 9.9-6 16.1 0 .4.6.4.6 0 .2-8.4 5.7-13.6 9.7-20.3 1.8-3.1 3.9-7.5 1.8-11zm-45.7-83.4c-5.6-3.4-10.6-2.4-16.8-2.5-6.1 0-10-6.2-16.1-5-2 .4-3.6 1.4-5.1 2.8-1.2 1.1-1.8 2.8-2.9 4-1.8 1.7-3.9 2.2-6 3.2-3.2 1.5-6.3 3.9-5.2 7.8.1.3.6.2.5-.1-.4-2.4 1.7-5.2 3.7-6.4 1.2-.7 2.6-1 3.9-1.6 1.4-.6 2.7-1.2 3.8-2.2 1.6-1.4 2.4-3.4 4.2-4.7 3.8-2.8 7.4-1.6 11.2.6 3.1 1.8 5.4 2.8 9 2.7 5.7-.2 10.4-.2 15.7 2 .1 0 .3-.5.1-.6zM63.9 53.2c-7.4 1.3-15 5.7-16.2 13.8-.5 3.2.4 6.2 2.1 8.9 3 4.7 11.1 8.9 7.2 15.4-4.5 7.3-17.1 5.7-20 14.6-2.5 7.3 4.5 13.1 9.9 16.5.2.1.4-.2.2-.3-3.6-2.9-7.9-5.8-9.2-10.5-1.9-6.7 3.5-10.4 8.8-12.5 4.9-1.9 10.6-3.6 12.5-9.1 2-5.7-3.1-8.7-6.4-12.4-4.1-4.5-5.7-10.1-2.3-15.6 3-4.9 8.3-7 13.5-8.5.1-.1.1-.3-.1-.3zm-8-4.3c-6.3 2.2-12.8 5.6-15.1 12.3-1 3-1 6 .3 8.9 2.1 4.8 6.8 8.2 5.3 14.2 0 .2.2.2.3.1 2.1-5.3-1.8-8.9-4.2-13.3-5.8-10.6 5-18.3 13.5-21.8.3-.1.2-.5-.1-.4zM174 111.4c-1.3-2-3.3-3.3-5.4-4.4-3-1.5-6.8-3.1-6.7-7.2 0-.3-.4-.4-.5-.1-.4 2.4.8 4.3 2.6 5.8 1.5 1.1 3.2 1.7 4.8 2.6 1.8 1 3.1 2.3 4.6 3.6.4.4.8.1.6-.3zm-3.6 36.2c-2.9.6-4.5 2.9-5.1 5.7-1.3 6.1 2.9 12.1-2.6 17.3-5.3 5-20.8 1.5-20.5 12.1 0 .2.3.2.3 0 .5-10.5 16.6-5.6 22.1-12.2 1.7-2.1 2.5-4.6 2.5-7.2.1-4.9-3.2-12.4 3.5-14.8.4-.3.3-1-.2-.9zM62.8 161.9c-.9-3-2.6-5.7-4.6-8.2-3.6-4.4-10.4-9.6-6-16 .2-.2-.2-.6-.4-.3-6.3 7 3.1 13.9 6.8 19.2 1.8 2.6 3.7 6 3.5 9.2-.2 3.9-3.1 6.1-4.5 9.4-1.3 3.2-1.2 6.4.3 9.4.1.3.6.1.5-.2-1-3.6-1-6.7.9-10.1 1-1.8 2.5-3.4 3.3-5.3 1-2.3 1-4.6.2-7.1zM55 183.1c-4.9-4.2-6.2-9.2-5-15.5.6-3.3 1.7-6.6 1-9.9-.4-2.1-1.4-3.8-2.9-5.3-3.3-3.2-12-5.7-8.5-12.5.1-.2-.2-.4-.4-.2-1.7 2.6-1.3 5.2.6 7.6 3.7 4.7 10 5.3 10.2 12.6.1 5.1-2.5 10-1.4 15.2.8 3.6 2.8 6.5 5.9 8.5.4.2.7-.2.5-.5z" fill="#3a353a" stroke-width="none" opacity="1"></path></g><g id="svga-group-glasses-single-move" transform="matrix(1,0,0,1,0,0)"><g id="svga-group-glasses-single"></g></g></g></g></g><rect id="svga-credit-rect" width="200" height="15" x="0" y="185" fill="#ecf0f1" opacity="0.5" style="display: none;"></rect><text id="svga-credit-text" font-family="Avenir Next, Roboto, Helvetica, Arial, sans-serif" font-size="10px" text-anchor="start" font-weight="400" size="10px" anchor="start" weight="400" fill="#333333" x="33.402061462402344" y="182.71133995056152" style="display: none;"><tspan id="SvgjsTspan12820" dy="13" x="33.402061462402344">Created on AvatarMaker.com</tspan></text></g><defs id="SvgjsDefs12772"></defs></svg>